<mxfile host="app.diagrams.net" modified="2022-09-27T12:25:13.509Z" agent="5.0 (Windows NT 10.0; WOW64) AppleWebKit/537.36 (KHTML, like Gecko) Chrome/86.0.4240.198 Safari/537.36" etag="aLTgtRegPb8SXUYnUYTl" version="16.6.8" type="github">
  <diagram id="C5RBs43oDa-KdzZeNtuy" name="Page-1">
    <mxGraphModel dx="868" dy="438" grid="1" gridSize="10" guides="1" tooltips="1" connect="1" arrows="1" fold="1" page="1" pageScale="1" pageWidth="827" pageHeight="1169" math="0" shadow="0">
      <root>
        <mxCell id="WIyWlLk6GJQsqaUBKTNV-0" />
        <mxCell id="WIyWlLk6GJQsqaUBKTNV-1" parent="WIyWlLk6GJQsqaUBKTNV-0" />
        <mxCell id="UHdT1vjz96gjRIfkw4Vw-2" value="" style="edgeStyle=orthogonalEdgeStyle;rounded=0;orthogonalLoop=1;jettySize=auto;html=1;" edge="1" parent="WIyWlLk6GJQsqaUBKTNV-1" source="UHdT1vjz96gjRIfkw4Vw-0" target="UHdT1vjz96gjRIfkw4Vw-1">
          <mxGeometry relative="1" as="geometry" />
        </mxCell>
        <mxCell id="UHdT1vjz96gjRIfkw4Vw-0" value="上传文件到&lt;br&gt;key01" style="rounded=0;whiteSpace=wrap;html=1;" vertex="1" parent="WIyWlLk6GJQsqaUBKTNV-1">
          <mxGeometry x="200" y="200" width="120" height="60" as="geometry" />
        </mxCell>
        <mxCell id="UHdT1vjz96gjRIfkw4Vw-4" value="" style="edgeStyle=orthogonalEdgeStyle;rounded=0;orthogonalLoop=1;jettySize=auto;html=1;" edge="1" parent="WIyWlLk6GJQsqaUBKTNV-1" source="UHdT1vjz96gjRIfkw4Vw-1" target="UHdT1vjz96gjRIfkw4Vw-3">
          <mxGeometry relative="1" as="geometry" />
        </mxCell>
        <mxCell id="UHdT1vjz96gjRIfkw4Vw-1" value="打包镜像" style="rounded=0;whiteSpace=wrap;html=1;" vertex="1" parent="WIyWlLk6GJQsqaUBKTNV-1">
          <mxGeometry x="200" y="310" width="120" height="60" as="geometry" />
        </mxCell>
        <mxCell id="UHdT1vjz96gjRIfkw4Vw-6" value="" style="edgeStyle=orthogonalEdgeStyle;rounded=0;orthogonalLoop=1;jettySize=auto;html=1;" edge="1" parent="WIyWlLk6GJQsqaUBKTNV-1" source="UHdT1vjz96gjRIfkw4Vw-3" target="UHdT1vjz96gjRIfkw4Vw-5">
          <mxGeometry relative="1" as="geometry" />
        </mxCell>
        <mxCell id="UHdT1vjz96gjRIfkw4Vw-3" value="镜像push&lt;br&gt;到私有仓库" style="rounded=0;whiteSpace=wrap;html=1;" vertex="1" parent="WIyWlLk6GJQsqaUBKTNV-1">
          <mxGeometry x="200" y="420" width="120" height="60" as="geometry" />
        </mxCell>
        <mxCell id="UHdT1vjz96gjRIfkw4Vw-5" value="swarm 创建服务" style="rounded=0;whiteSpace=wrap;html=1;" vertex="1" parent="WIyWlLk6GJQsqaUBKTNV-1">
          <mxGeometry x="200" y="540" width="120" height="60" as="geometry" />
        </mxCell>
        <mxCell id="UHdT1vjz96gjRIfkw4Vw-10" value="" style="edgeStyle=orthogonalEdgeStyle;rounded=0;orthogonalLoop=1;jettySize=auto;html=1;" edge="1" parent="WIyWlLk6GJQsqaUBKTNV-1" source="UHdT1vjz96gjRIfkw4Vw-7" target="UHdT1vjz96gjRIfkw4Vw-9">
          <mxGeometry relative="1" as="geometry" />
        </mxCell>
        <mxCell id="UHdT1vjz96gjRIfkw4Vw-7" value="key01-node" style="rounded=0;whiteSpace=wrap;html=1;" vertex="1" parent="WIyWlLk6GJQsqaUBKTNV-1">
          <mxGeometry x="490" y="190" width="120" height="60" as="geometry" />
        </mxCell>
        <mxCell id="UHdT1vjz96gjRIfkw4Vw-11" style="edgeStyle=orthogonalEdgeStyle;rounded=0;orthogonalLoop=1;jettySize=auto;html=1;" edge="1" parent="WIyWlLk6GJQsqaUBKTNV-1" source="UHdT1vjz96gjRIfkw4Vw-8" target="UHdT1vjz96gjRIfkw4Vw-9">
          <mxGeometry relative="1" as="geometry" />
        </mxCell>
        <mxCell id="UHdT1vjz96gjRIfkw4Vw-8" value="key02-node" style="rounded=0;whiteSpace=wrap;html=1;" vertex="1" parent="WIyWlLk6GJQsqaUBKTNV-1">
          <mxGeometry x="670" y="190" width="120" height="60" as="geometry" />
        </mxCell>
        <mxCell id="UHdT1vjz96gjRIfkw4Vw-9" value="key01-manager" style="whiteSpace=wrap;html=1;rounded=0;" vertex="1" parent="WIyWlLk6GJQsqaUBKTNV-1">
          <mxGeometry x="580" y="340" width="120" height="60" as="geometry" />
        </mxCell>
        <mxCell id="UHdT1vjz96gjRIfkw4Vw-12" value="nginx" style="rounded=0;whiteSpace=wrap;html=1;" vertex="1" parent="WIyWlLk6GJQsqaUBKTNV-1">
          <mxGeometry x="570" y="550" width="120" height="60" as="geometry" />
        </mxCell>
      </root>
    </mxGraphModel>
  </diagram>
</mxfile>
